<svg id="Слой_1" data-name="Слой 1" xmlns="http://www.w3.org/2000/svg" viewBox="0 0 71.84 71.84"><defs><style>.cls-1{fill:#009ee1;}</style></defs><path class="cls-1" d="M960.33,576.24a35.92,35.92,0,1,1,35.92-35.92v4c0,7.59-5.68,13.56-12.94,13.56a12.92,12.92,0,0,1-9.88-4.66.75.75,0,0,0-.59-.29h0a.9.9,0,0,0-.57.22,17.56,17.56,0,1,1-.41-26,.85.85,0,0,0,.55.2h5.51v17.54a5.43,5.43,0,0,0,5.43,5.43c3.14,0,5.42-2.53,5.42-6v-4a28.41,28.41,0,1,0-14.93,25l3.77,6.52A35.4,35.4,0,0,1,960.33,576.24Zm0-45.92a10,10,0,1,0,10,10A10,10,0,0,0,960.33,530.32Z" transform="translate(-924.41 -504.4)"/></svg>