<svg id="Слой_1" data-name="Слой 1" xmlns="http://www.w3.org/2000/svg" viewBox="0 0 51.92 35.88"><defs><style>.cls-1{fill:#fff;}</style></defs><path class="cls-1" d="M981.32,522.39h-42a5,5,0,0,0-5,5V553.3a5,5,0,0,0,5,5h42a5,5,0,0,0,5-5V527.37A5,5,0,0,0,981.32,522.39ZM961.79,541a2.28,2.28,0,0,1-2.91,0l-17.56-14.63h38Zm-6.88,1.87,1.42,1.19a6.26,6.26,0,0,0,8,0l1.42-1.19,16.41,10.93a1,1,0,0,1-.85.49h-42a1,1,0,0,1-.86-.49Zm-16.55,6.23v-20l13.35,11.11Zm30.6-8.89,13.35-11.11v20Z" transform="translate(-934.38 -522.39)"/></svg>