<svg id="Слой_1" data-name="Слой 1" xmlns="http://www.w3.org/2000/svg" viewBox="0 0 42.51 42.5"><defs><style>.cls-1{fill:#fff;}</style></defs><path class="cls-1" d="M978,550.79l0,.25c-7.24-3.61-8-4.09-8.93-2.69-.65,1-2.54,3.18-3.11,3.83s-1.15.69-2.13.25a26.76,26.76,0,0,1-7.91-4.89,29.76,29.76,0,0,1-5.47-6.82c-1-1.67,1.06-1.9,2.89-5.38a1.83,1.83,0,0,0-.08-1.73c-.24-.49-2.21-5.33-3-7.26s-1.61-1.68-2.22-1.68c-1.89-.17-3.28-.14-4.5,1.13-5.31,5.84-4,11.87.57,18.28,8.94,11.69,13.7,13.85,22.41,16.84a13.64,13.64,0,0,0,6.19.4c1.89-.3,5.82-2.38,6.64-4.7s.84-4.25.59-4.69-.89-.69-1.88-1.13Z" transform="translate(-940.01 -519)"/><path class="cls-1" d="M970.4,540.49l3.33-.57a14.93,14.93,0,0,0-12.64-12.26l-.47,3.35a11.56,11.56,0,0,1,9.78,9.48Z" transform="translate(-940.01 -519)"/><path class="cls-1" d="M975.61,526a24.56,24.56,0,0,0-14.08-7l-.47,3.35a21.44,21.44,0,0,1,18.13,17.57l3.33-.57A24.76,24.76,0,0,0,975.61,526Z" transform="translate(-940.01 -519)"/></svg>