<svg id="Слой_1" data-name="Слой 1" xmlns="http://www.w3.org/2000/svg" viewBox="0 0 67.67 67.66"><defs><style>.cls-1{fill:#009ee1;}</style></defs><path class="cls-1" d="M988.43,557l0,.4c-11.53-5.75-12.73-6.51-14.22-4.28-1,1.55-4,5.06-4.95,6.09s-1.83,1.11-3.39.4a42.71,42.71,0,0,1-12.6-7.79,47.5,47.5,0,0,1-8.7-10.85c-1.53-2.65,1.68-3,4.6-8.57a2.9,2.9,0,0,0-.12-2.74c-.38-.78-3.53-8.5-4.84-11.57s-2.55-2.68-3.52-2.68c-3-.26-5.22-.22-7.18,1.8-8.45,9.31-6.32,18.9.92,29.1,14.23,18.63,21.81,22.05,35.67,26.81a21.55,21.55,0,0,0,9.86.64c3-.48,9.26-3.78,10.57-7.48s1.33-6.76.94-7.46-1.42-1.1-3-1.81Z" transform="translate(-927.98 -506.37)"/><path class="cls-1" d="M976.36,540.59l5.31-.91a23.79,23.79,0,0,0-20.14-19.52l-.74,5.33a18.38,18.38,0,0,1,15.57,15.1Z" transform="translate(-927.98 -506.37)"/><path class="cls-1" d="M984.65,517.56a39.08,39.08,0,0,0-22.41-11.19l-.75,5.33a34.11,34.11,0,0,1,28.86,28l5.3-.9a39.35,39.35,0,0,0-11-21.23Z" transform="translate(-927.98 -506.37)"/></svg>